<?xml version="1.0" encoding="UTF-8"?>
<svg id="Layer_2" xmlns="http://www.w3.org/2000/svg" viewBox="0 0 32 32">
  <defs>
    <style>
      .cls-1 {
        fill: #131313;
      }

      .cls-2 {
        fill: #38d430;
      }
    </style>
  </defs>
  <g id="Layer_1-2" data-name="Layer_1">
    <g id="AppList.targetsize-256">
      <g id="Razer_Controller_Setup_For_Xbox">
        <g id="Group_1">
          <circle id="Color_Fill_27_copy_5" class="cls-2" cx="16" cy="16" r="14"/>
          <path id="Wildat" class="cls-1" d="M21.1,19.67c-.57-.7-1.89-1.45-2.56-1.45h-4.97c-.67,0-1.99.75-2.56,1.45-.39.47-2.12,2.15-2.15,2.17h0c-.93-.23-1.45-.65-1.71-1.35-.28-.83-.23-2.04.21-3.88.47-1.94,1.04-3.21,1.45-3.93.44-.78.8-1.09.8-1.09,0-.34.1-.41.28-.49.21-.1,1.6-.62,2.3-.78.1,0,.18-.03.28-.03.36,0,.7.16.96.41h0c.1.1,1.06,1.53,1.16,1.73.08.13.21.21.34.21h2.2c.16,0,.28-.1.34-.21.1-.21,1.06-1.63,1.16-1.73h0c.26-.26.6-.41.96-.41.1,0,.18,0,.28.03.7.13,2.1.67,2.3.78.18.08.26.18.28.49,0,0,.36.34.8,1.09.41.72,1.01,1.97,1.45,3.93.41,1.84.49,3.05.21,3.88-.26.7-.78,1.11-1.71,1.35-.08-.08-1.76-1.71-2.15-2.17h.03ZM11.5,15.4v.8s.13.1.49.1.49-.1.49-.1v-.8l-.28-.28h-.41s-.28.28-.28.28ZM18.43,14.71c0,.83.7,1.53,1.6,1.53s1.6-.67,1.6-1.5-.7-1.53-1.6-1.53h0c-.88,0-1.6.67-1.6,1.5h0ZM12.43,14.52v.39l.28.28h.83s.1-.13.1-.47-.1-.47-.1-.47h-.83l-.28.28v-.03ZM10.31,14.73c0,.34.1.47.1.47h.83l.28-.28v-.39l-.28-.28h-.83s-.1.13-.1.47h0v.03ZM11.5,13.23v.8l.28.28h.41l.28-.28v-.8s-.13-.1-.49-.1-.49.1-.49.1h0ZM13.46,19.52c-.31,0-.34-.18-.34-.18l-.08-.62c.18-.08.36-.13.57-.13h4.87c.21,0,.39.05.57.13l-.08.62s-.03.18-.34.18h-5.18ZM18.85,14.71c0-.62.54-1.11,1.19-1.11s1.19.52,1.16,1.11c0,.62-.54,1.14-1.19,1.11-.65,0-1.19-.49-1.19-1.11h.03ZM16.91,12.33h-1.73c-.16,0-.28-.08-.36-.18,0-.03-.05-.08-.08-.13-.23-.41-.52-.83-.8-1.22h4.22c-.28.39-.57.8-.8,1.22h0c-.03.05-.05.08-.08.13-.08.13-.21.21-.36.18h0Z"/>
        </g>
      </g>
    </g>
  </g>
</svg>